<?xml version="1.0" standalone="no"?><!DOCTYPE svg PUBLIC "-//W3C//DTD SVG 1.1//EN" "http://www.w3.org/Graphics/SVG/1.1/DTD/svg11.dtd"><svg t="1596965155839" class="icon" viewBox="0 0 1024 1024" version="1.1" xmlns="http://www.w3.org/2000/svg" p-id="866" xmlns:xlink="http://www.w3.org/1999/xlink" width="200" height="200"><defs><style type="text/css"></style></defs><path d="M757.394 146.87a68.974 68.974 0 0 0-3.291-97.57199999 78.994 78.994 0 0 0-107.959 0l-431.69 403.45599999a68.974 68.974 0 0 0-19.601 68.17 68.9 68.9 0 0 0 19.602 68.169L646.144 992.32900001a78.994 78.994 0 0 0 107.95900001-1e-8 68.974 68.974 0 0 0-1e-8-100.79l-396.727-370.762 396.727-370.61500001a69.047 69.047 0 0 0 1.682-1.60899999z" p-id="867"></path></svg>